<?xml version="1.0" encoding="UTF-8"?>
<svg version="1.1" xmlns="http://www.w3.org/2000/svg" width="262" height="256">
<path d="M0 0 C86.46 0 172.92 0 262 0 C262 84.48 262 168.96 262 256 C175.54 256 89.08 256 0 256 C0 171.52 0 87.04 0 0 Z " fill="#FCFDFD" transform="translate(0,0)"/>
<path d="M0 0 C0.02949232 3.45831484 0.0469616 6.91659654 0.0625 10.375 C0.07087891 11.34050781 0.07925781 12.30601563 0.08789062 13.30078125 C0.10288414 17.76885019 0.04213802 22.15269732 -0.46875 26.59375 C-1.34556642 34.40340681 -1.36823603 42.2751497 -1.5625 50.125 C-1.6057855 51.76563385 -1.64940263 53.40625899 -1.69335938 55.046875 C-1.79939628 59.03115984 -1.90094577 63.0155357 -2 67 C-4.94684321 65.68228322 -6.91052522 64.29435419 -9.09375 61.92578125 C-9.64933594 61.34119141 -10.20492187 60.75660156 -10.77734375 60.15429688 C-11.9316405 58.92016781 -13.08004407 57.68050187 -14.22265625 56.43554688 C-14.77824219 55.85482422 -15.33382812 55.27410156 -15.90625 54.67578125 C-16.65358398 53.8700769 -16.65358398 53.8700769 -17.41601562 53.0480957 C-18.96438933 51.78864216 -18.96438933 51.78864216 -21.0065918 52.16650391 C-23.17210334 53.07196091 -24.35073698 53.99067065 -25.98828125 55.66015625 C-26.52614258 56.2025293 -27.06400391 56.74490234 -27.61816406 57.30371094 C-28.17729492 57.88411133 -28.73642578 58.46451172 -29.3125 59.0625 C-29.89354492 59.65450195 -30.47458984 60.24650391 -31.07324219 60.85644531 C-34.62425635 64.4989702 -38.03599833 68.23053268 -41.328125 72.109375 C-44.01507288 75.14788616 -46.93786692 77.94542502 -49.82421875 80.79296875 C-51.74497384 82.74131099 -53.54042805 84.72999209 -55.3125 86.8125 C-58.37500183 90.38898815 -61.65280287 93.69389799 -65 97 C-68.89500269 100.84729904 -72.60234034 104.75472582 -76.1484375 108.9296875 C-79.41265125 112.57954676 -82.94877221 115.96549024 -86.44921875 119.38671875 C-87.29097656 120.24910156 -88.13273437 121.11148438 -89 122 C-89.70237793 122.69270996 -90.40475586 123.38541992 -91.12841797 124.09912109 C-93.72393971 128.12207822 -93.5595623 131.33627541 -93.49609375 136.02734375 C-93.4982766 137.32714928 -93.4982766 137.32714928 -93.50050354 138.6532135 C-93.49884756 140.481327 -93.48731993 142.30945488 -93.46655273 144.13745117 C-93.43763049 146.92492383 -93.44594346 149.71048902 -93.45898438 152.49804688 C-93.45274527 154.27865502 -93.44435299 156.05925718 -93.43359375 157.83984375 C-93.43652939 158.66814194 -93.43946503 159.49644012 -93.44248962 160.34983826 C-93.34343981 166.47390046 -92.23120695 170.82909594 -87.6875 175.25 C-82.1621279 178.84791672 -76.96427277 179.34080138 -70.5625 179.3125 C-69.83740234 179.32861328 -69.11230469 179.34472656 -68.36523438 179.36132812 C-61.87617793 179.36715836 -57.24361388 177.89460728 -52.1875 173.625 C-46.63261036 166.95913243 -46.90595409 159.56313571 -47.39796448 151.29423523 C-50.05462348 105.59754855 -50.05462348 105.59754855 -40.18359375 93.51953125 C-35.01406997 87.75026892 -28.92029739 82.98524843 -22.484375 78.70922852 C-19.91773447 77.23829737 -19.91773447 77.23829737 -19 75 C-18.34 75 -17.68 75 -17 75 C-16.97663347 84.59829236 -16.95896284 94.19657465 -16.94818783 103.79488945 C-16.94301143 108.25373223 -16.93601144 112.71255529 -16.92456055 117.17138672 C-16.9135423 121.48971876 -16.90768391 125.80803207 -16.90512276 130.12637711 C-16.90330208 131.75824401 -16.89974874 133.39011012 -16.89426994 135.02196884 C-16.86667349 143.5976283 -16.97722617 152.14601625 -17.42407227 160.71142578 C-17.46030921 161.44042021 -17.49654615 162.16941463 -17.53388119 162.9204998 C-18.34469382 176.83653789 -22.10107208 190.8076256 -32 201 C-45.56124362 212.31784087 -62.94770508 214.19156014 -80 213 C-88.98241135 212.06077056 -102.41866909 210.58133091 -109 204 C-109.495 206.97 -109.495 206.97 -110 210 C-142.67 210 -175.34 210 -209 210 C-209 173.04 -209 136.08 -209 98 C-199.43 98 -189.86 98 -180 98 C-180 125.39 -180 152.78 -180 181 C-161.85 181 -143.7 181 -125 181 C-125.66 176.71 -126.32 172.42 -127 168 C-127.26117145 164.55179391 -127.47516064 161.14976663 -127.59765625 157.69921875 C-127.63657486 156.76020721 -127.67549347 155.82119568 -127.71559143 154.85372925 C-127.83937377 151.79857661 -127.95158482 148.74314487 -128.0625 145.6875 C-128.1455951 143.52791051 -128.22876708 141.36832397 -128.31201172 139.20874023 C-129.49059435 107.82074506 -130.19631668 76.41066951 -130 45 C-136.93 45 -143.86 45 -151 45 C-149.42784326 41.85568651 -148.50162025 40.24014319 -146.20703125 37.828125 C-145.66304687 37.25070557 -145.1190625 36.67328613 -144.55859375 36.07836914 C-143.98238281 35.47500732 -143.40617187 34.87164551 -142.8125 34.25 C-141.62032314 32.98379803 -140.42890899 31.71687749 -139.23828125 30.44921875 C-138.67061035 29.8464209 -138.10293945 29.24362305 -137.51806641 28.62255859 C-134.58882565 25.4916911 -131.79391019 22.25119689 -129 19 C-127.32928539 17.06596916 -125.65717776 15.13315279 -123.984375 13.20092773 C-122.80240647 11.83540078 -121.62138948 10.46904951 -120.44140625 9.10180664 C-119.89742188 8.47266357 -119.3534375 7.84352051 -118.79296875 7.1953125 C-118.3033667 6.62828613 -117.81376465 6.06125977 -117.30932617 5.47705078 C-116.24794368 4.27970526 -115.13140821 3.13140821 -114 2 C-110 2 -110 2 -108.0625 3.9140625 C-107.381875 4.80867188 -106.70125 5.70328125 -106 6.625 C-104.824375 8.12933594 -104.824375 8.12933594 -103.625 9.6640625 C-102.99271484 10.47665527 -102.99271484 10.47665527 -102.34765625 11.30566406 C-99.98431636 14.27696457 -97.48627479 17.13155511 -95 20 C-89.89742089 25.91928316 -84.90642171 31.91643276 -80 38 C-79.2575 38.88558594 -78.515 39.77117188 -77.75 40.68359375 C-76 43 -76 43 -76 45 C-82.93 45 -89.86 45 -97 45 C-96.835 46.794375 -96.67 48.58875 -96.5 50.4375 C-95.68165147 61.60622848 -95.91431794 72.80860458 -96 84 C-91.91594674 79.96998903 -87.97836839 75.81809801 -84.0625 71.625 C-83.08168457 70.57650879 -83.08168457 70.57650879 -82.08105469 69.50683594 C-80.72241367 68.05408991 -79.36418094 66.60096195 -78.00634766 65.14746094 C-76.10301998 63.11026572 -74.19818408 61.07449222 -72.29296875 59.0390625 C-58.38012363 44.25815799 -58.38012363 44.25815799 -45 29 C-48.29563154 21.31597488 -56.19464491 15.67592302 -62.46875 10.41015625 C-64 9 -64 9 -65 7 C-51.71635505 4.33191747 -38.36700762 3.11601406 -24.88330078 2.00268555 C-23.79961212 1.91299248 -23.79961212 1.91299248 -22.69403076 1.82148743 C-20.71079439 1.6586868 -18.72723263 1.49986394 -16.74365234 1.34130859 C-14.09005544 1.0993803 -11.47672012 0.8105158 -8.83837891 0.45947266 C-5.82691263 0.09898547 -3.02198797 -0.09443712 0 0 Z " fill="#055CC8" transform="translate(239,23)"/>
<path d="M0 0 C0.02949232 3.45831484 0.0469616 6.91659654 0.0625 10.375 C0.07087891 11.34050781 0.07925781 12.30601563 0.08789062 13.30078125 C0.10288414 17.76885019 0.04213802 22.15269732 -0.46875 26.59375 C-1.34556642 34.40340681 -1.36823603 42.2751497 -1.5625 50.125 C-1.6057855 51.76563385 -1.64940263 53.40625899 -1.69335938 55.046875 C-1.79939628 59.03115984 -1.90094577 63.0155357 -2 67 C-4.94684321 65.68228322 -6.91052522 64.29435419 -9.09375 61.92578125 C-9.64933594 61.34119141 -10.20492187 60.75660156 -10.77734375 60.15429688 C-11.9316405 58.92016781 -13.08004407 57.68050187 -14.22265625 56.43554688 C-14.77824219 55.85482422 -15.33382812 55.27410156 -15.90625 54.67578125 C-16.65358398 53.8700769 -16.65358398 53.8700769 -17.41601562 53.0480957 C-18.96438933 51.78864216 -18.96438933 51.78864216 -21.0065918 52.16650391 C-23.17210334 53.07196091 -24.35073698 53.99067065 -25.98828125 55.66015625 C-26.52614258 56.2025293 -27.06400391 56.74490234 -27.61816406 57.30371094 C-28.45686035 58.17431152 -28.45686035 58.17431152 -29.3125 59.0625 C-29.89354492 59.65450195 -30.47458984 60.24650391 -31.07324219 60.85644531 C-34.62425635 64.4989702 -38.03599833 68.23053268 -41.328125 72.109375 C-44.01507288 75.14788616 -46.93786692 77.94542502 -49.82421875 80.79296875 C-51.74497384 82.74131099 -53.54042805 84.72999209 -55.3125 86.8125 C-58.37500183 90.38898815 -61.65280287 93.69389799 -65 97 C-68.89500269 100.84729904 -72.60234034 104.75472582 -76.1484375 108.9296875 C-79.41265125 112.57954676 -82.94877221 115.96549024 -86.44921875 119.38671875 C-87.29097656 120.24910156 -88.13273437 121.11148438 -89 122 C-89.7000415 122.70189453 -90.40008301 123.40378906 -91.12133789 124.12695312 C-93.6634666 128.01464261 -93.60223863 131.03104622 -93.609375 135.58203125 C-93.62591125 136.39621017 -93.64244751 137.2103891 -93.65948486 138.04924011 C-93.70787788 140.6370708 -93.72931568 143.22431426 -93.75 145.8125 C-93.77816708 147.57229503 -93.80809555 149.33206281 -93.83984375 151.09179688 C-93.91363409 155.39448288 -93.9632615 159.69684457 -94 164 C-94.33 164 -94.66 164 -95 164 C-95 152.45 -95 140.9 -95 129 C-95.66 129 -96.32 129 -97 129 C-97.24363281 129.57234375 -97.48726562 130.1446875 -97.73828125 130.734375 C-99.22517298 133.40433538 -100.98083908 135.13829007 -103.1875 137.25 C-106.68814349 140.6670294 -109.94245697 144.1680726 -113.09765625 147.90234375 C-115.38718393 150.42693587 -117.8785624 152.68061471 -120.375 155 C-123.54434186 158.1021134 -125.58737308 160.15004652 -126.125 164.625 C-126.08375 165.73875 -126.0425 166.8525 -126 168 C-126.33 168 -126.66 168 -127 168 C-128.83977145 127.01621221 -130.25644169 86.03067115 -130 45 C-136.93 45 -143.86 45 -151 45 C-149.42784326 41.85568651 -148.50162025 40.24014319 -146.20703125 37.828125 C-145.66304688 37.25070557 -145.1190625 36.67328613 -144.55859375 36.07836914 C-143.69427734 35.17332642 -143.69427734 35.17332642 -142.8125 34.25 C-141.62032314 32.98379803 -140.42890899 31.71687749 -139.23828125 30.44921875 C-138.67061035 29.8464209 -138.10293945 29.24362305 -137.51806641 28.62255859 C-134.58882565 25.4916911 -131.79391019 22.25119689 -129 19 C-127.32928539 17.06596916 -125.65717776 15.13315279 -123.984375 13.20092773 C-122.80240647 11.83540078 -121.62138948 10.46904951 -120.44140625 9.10180664 C-119.62542969 8.15809204 -119.62542969 8.15809204 -118.79296875 7.1953125 C-118.05856567 6.34477295 -118.05856567 6.34477295 -117.30932617 5.47705078 C-116.24794368 4.27970526 -115.13140821 3.13140821 -114 2 C-110 2 -110 2 -108.0625 3.9140625 C-107.0415625 5.25597656 -107.0415625 5.25597656 -106 6.625 C-105.21625 7.62789062 -104.4325 8.63078125 -103.625 9.6640625 C-102.99271484 10.47665527 -102.99271484 10.47665527 -102.34765625 11.30566406 C-99.98431636 14.27696457 -97.48627479 17.13155511 -95 20 C-89.89742089 25.91928316 -84.90642171 31.91643276 -80 38 C-79.2575 38.88558594 -78.515 39.77117188 -77.75 40.68359375 C-76 43 -76 43 -76 45 C-82.93 45 -89.86 45 -97 45 C-96.7525 47.6915625 -96.7525 47.6915625 -96.5 50.4375 C-95.68165147 61.60622848 -95.91431794 72.80860458 -96 84 C-91.91594674 79.96998903 -87.97836839 75.81809801 -84.0625 71.625 C-83.08168457 70.57650879 -83.08168457 70.57650879 -82.08105469 69.50683594 C-80.72241367 68.05408991 -79.36418094 66.60096195 -78.00634766 65.14746094 C-76.10301998 63.11026572 -74.19818408 61.07449222 -72.29296875 59.0390625 C-58.38012363 44.25815799 -58.38012363 44.25815799 -45 29 C-48.29563154 21.31597488 -56.19464491 15.67592302 -62.46875 10.41015625 C-64 9 -64 9 -65 7 C-51.71635505 4.33191747 -38.36700762 3.11601406 -24.88330078 2.00268555 C-23.79961212 1.91299248 -23.79961212 1.91299248 -22.69403076 1.82148743 C-20.71079439 1.6586868 -18.72723263 1.49986394 -16.74365234 1.34130859 C-14.09005544 1.0993803 -11.47672012 0.8105158 -8.83837891 0.45947266 C-5.82691263 0.09898547 -3.02198797 -0.09443712 0 0 Z " fill="#39A6E1" transform="translate(239,23)"/>
<path d="M0 0 C9.57 0 19.14 0 29 0 C29 27.39 29 54.78 29 83 C47.15 83 65.3 83 84 83 C84.33 82.34 84.66 81.68 85 81 C85.24234375 81.72445312 85.4846875 82.44890625 85.734375 83.1953125 C87.88810501 89.40799523 89.97596963 94.81955427 94.5859375 99.66796875 C95.13507813 100.25191406 95.68421875 100.83585937 96.25 101.4375 C96.77078125 101.95183594 97.2915625 102.46617187 97.828125 102.99609375 C99 105 99 105 99 112 C66.33 112 33.66 112 0 112 C0 75.04 0 38.08 0 0 Z " fill="#2C6ED0" transform="translate(30,121)"/>
<path d="M0 0 C4 0 4 0 5.9375 1.9140625 C6.9584375 3.25597656 6.9584375 3.25597656 8 4.625 C8.78375 5.62789062 9.5675 6.63078125 10.375 7.6640625 C11.00728516 8.47665527 11.00728516 8.47665527 11.65234375 9.30566406 C14.01568364 12.27696457 16.51372521 15.13155511 19 18 C24.10257911 23.91928316 29.09357829 29.91643276 34 36 C34.7425 36.88558594 35.485 37.77117188 36.25 38.68359375 C38 41 38 41 38 43 C31.07 43 24.14 43 17 43 C17.2475 45.6296875 17.2475 45.6296875 17.5 48.3125 C17.62648097 50.33826905 17.75072561 52.36423165 17.85791016 54.39111328 C17.96253253 56.31206641 18.08151372 58.23225075 18.20849609 60.15185547 C19.57137683 82.52025465 19.57137683 82.52025465 16.015625 87.68359375 C13.48576297 90.14062642 10.92629161 92.04341793 8 94 C6.01773969 96.04984736 6.01773969 96.04984736 4.3125 98.1875 C1.60473659 101.35184179 -1.25335069 104.28149176 -4.23046875 107.19140625 C-6.81266117 109.83060071 -9.16357432 112.6549283 -11.51953125 115.49609375 C-12.25236328 116.24052734 -12.25236328 116.24052734 -13 117 C-13.66 117 -14.32 117 -15 117 C-16.14984709 66.97553517 -16.14984709 66.97553517 -16 43 C-22.93 43 -29.86 43 -37 43 C-35.42784326 39.85568651 -34.50162025 38.24014319 -32.20703125 35.828125 C-31.66304688 35.25070557 -31.1190625 34.67328613 -30.55859375 34.07836914 C-29.69427734 33.17332642 -29.69427734 33.17332642 -28.8125 32.25 C-27.62032314 30.98379803 -26.42890899 29.71687749 -25.23828125 28.44921875 C-24.67061035 27.8464209 -24.10293945 27.24362305 -23.51806641 26.62255859 C-20.58882565 23.4916911 -17.79391019 20.25119689 -15 17 C-13.32928539 15.06596916 -11.65717776 13.13315279 -9.984375 11.20092773 C-8.80240647 9.83540078 -7.62138948 8.46904951 -6.44140625 7.10180664 C-5.62542969 6.15809204 -5.62542969 6.15809204 -4.79296875 5.1953125 C-4.05856567 4.34477295 -4.05856567 4.34477295 -3.30932617 3.47705078 C-2.24794368 2.27970526 -1.13140821 1.13140821 0 0 Z " fill="#0275CB" transform="translate(125,25)"/>
<path d="M0 0 C1.65 0 3.3 0 5 0 C5.02949232 3.45831484 5.0469616 6.91659654 5.0625 10.375 C5.07087891 11.34050781 5.07925781 12.30601563 5.08789062 13.30078125 C5.10902305 19.59824289 4.76107198 25.74839863 4 32 C3.67 32 3.34 32 3 32 C2.02039537 21.51069502 2.10428891 11.48670989 3 1 C2.01 0.67 1.02 0.34 0 0 Z " fill="#5AC2E9" transform="translate(234,23)"/>
<path d="M0 0 C0 3.58912412 -0.66436554 4.10857029 -3 6.6875 C-3.556875 7.31011719 -4.11375 7.93273437 -4.6875 8.57421875 C-5.120625 9.04472656 -5.55375 9.51523438 -6 10 C-6.99 9.67 -7.98 9.34 -9 9 C-6.03 6.03 -3.06 3.06 0 0 Z " fill="#2B74CF" transform="translate(202,117)"/>
</svg>
